<svg width="19" height="18" viewBox="0 0 19 18" fill="none" xmlns="http://www.w3.org/2000/svg">
<path fill-rule="evenodd" clip-rule="evenodd" d="M2.78125 13.5C2.78125 13.0858 3.11704 12.75 3.53125 12.75H10.4093C10.7182 11.8761 11.5516 11.25 12.5312 11.25C13.5109 11.25 14.3443 11.8761 14.6532 12.75H15.5312C15.9455 12.75 16.2812 13.0858 16.2812 13.5C16.2812 13.9142 15.9455 14.25 15.5312 14.25H14.6532C14.3443 15.1239 13.5109 15.75 12.5312 15.75C11.5516 15.75 10.7182 15.1239 10.4093 14.25H3.53125C3.11704 14.25 2.78125 13.9142 2.78125 13.5ZM2.78125 9C2.78125 8.58579 3.11704 8.25 3.53125 8.25H4.40928C4.71816 7.37611 5.55159 6.75 6.53125 6.75C7.51091 6.75 8.34434 7.37611 8.65322 8.25H15.5312C15.9455 8.25 16.2812 8.58579 16.2812 9C16.2812 9.41421 15.9455 9.75 15.5312 9.75H8.65322C8.34434 10.6239 7.51091 11.25 6.53125 11.25C5.55159 11.25 4.71816 10.6239 4.40928 9.75H3.53125C3.11704 9.75 2.78125 9.41421 2.78125 9ZM2.78125 4.5C2.78125 4.08579 3.11704 3.75 3.53125 3.75H10.4093C10.7182 2.87611 11.5516 2.25 12.5312 2.25C13.5109 2.25 14.3443 2.87611 14.6532 3.75H15.5312C15.9455 3.75 16.2812 4.08579 16.2812 4.5C16.2812 4.91421 15.9455 5.25 15.5312 5.25H14.6532C14.3443 6.12389 13.5109 6.75 12.5312 6.75C11.5516 6.75 10.7182 6.12389 10.4093 5.25H3.53125C3.11704 5.25 2.78125 4.91421 2.78125 4.5ZM5.78125 9C5.78125 9.41421 6.11704 9.75 6.53125 9.75C6.94546 9.75 7.28125 9.41421 7.28125 9C7.28125 8.58579 6.94546 8.25 6.53125 8.25C6.11704 8.25 5.78125 8.58579 5.78125 9ZM11.7812 13.5C11.7812 13.9142 12.117 14.25 12.5312 14.25C12.9455 14.25 13.2812 13.9142 13.2812 13.5C13.2812 13.0858 12.9455 12.75 12.5312 12.75C12.117 12.75 11.7812 13.0858 11.7812 13.5ZM11.7812 4.5C11.7812 4.91421 12.117 5.25 12.5312 5.25C12.9455 5.25 13.2812 4.91421 13.2812 4.5C13.2812 4.08579 12.9455 3.75 12.5312 3.75C12.117 3.75 11.7812 4.08579 11.7812 4.5Z" fill="#001224"/>
</svg>
