<svg width="19" height="18" viewBox="0 0 19 18" fill="none" xmlns="http://www.w3.org/2000/svg">
<path d="M10.8279 2.63297L12.1479 5.27297C12.3279 5.64047 12.8079 5.99297 13.2129 6.06047L15.6054 6.45797C17.1354 6.71297 17.4954 7.82297 16.3929 8.91797L14.5329 10.778C14.2179 11.093 14.0454 11.7005 14.1429 12.1355L14.6754 14.438C15.0954 16.2605 14.1279 16.9655 12.5154 16.013L10.2729 14.6855C9.86795 14.4455 9.20045 14.4455 8.78795 14.6855L6.54545 16.013C4.94045 16.9655 3.96545 16.253 4.38545 14.438L4.91795 12.1355C5.01545 11.7005 4.84295 11.093 4.52795 10.778L2.66795 8.91797C1.57295 7.82297 1.92545 6.71297 3.45545 6.45797L5.84795 6.06047C6.24545 5.99297 6.72545 5.64047 6.90545 5.27297L8.22545 2.63297C8.94545 1.20047 10.1154 1.20047 10.8279 2.63297Z" fill="#001224"/>
</svg>
