<svg width="21" height="20" viewBox="0 0 21 20" fill="none" xmlns="http://www.w3.org/2000/svg">
<path d="M6.1159 14.9993H3.99091C2.79924 14.9993 2.19922 14.3993 2.19922 13.2077V3.4577C2.19922 2.26604 2.79924 1.66602 3.99091 1.66602H7.57423C8.7659 1.66602 9.36587 2.26604 9.36587 3.4577V4.99935" stroke="#434242" stroke-width="1.5" stroke-miterlimit="10" stroke-linecap="round" stroke-linejoin="round"/>
<path d="M15.0049 7.01665V16.3167C15.0049 17.6583 14.3383 18.3333 12.9966 18.3333H8.12993C6.78827 18.3333 6.11328 17.6583 6.11328 16.3167V7.01665C6.11328 5.67499 6.78827 5 8.12993 5H12.9966C14.3383 5 15.0049 5.67499 15.0049 7.01665Z" stroke="#434242" stroke-width="1.5" stroke-miterlimit="10" stroke-linecap="round" stroke-linejoin="round"/>
<path d="M11.6992 4.99935V3.4577C11.6992 2.26604 12.2992 1.66602 13.4909 1.66602H17.0742C18.2658 1.66602 18.8659 2.26604 18.8659 3.4577V13.2077C18.8659 14.3993 18.2658 14.9993 17.0742 14.9993H15.0075" stroke="#434242" stroke-width="1.5" stroke-miterlimit="10" stroke-linecap="round" stroke-linejoin="round"/>
<path d="M8.86328 9.16602H12.1966" stroke="#434242" stroke-width="1.5" stroke-miterlimit="10" stroke-linecap="round" stroke-linejoin="round"/>
<path d="M8.86328 11.666H12.1966" stroke="#434242" stroke-width="1.5" stroke-miterlimit="10" stroke-linecap="round" stroke-linejoin="round"/>
<path d="M10.5312 18.334V15.834" stroke="#434242" stroke-width="1.5" stroke-miterlimit="10" stroke-linecap="round" stroke-linejoin="round"/>
</svg>
