<svg width="33" height="33" viewBox="0 0 33 33" fill="none" xmlns="http://www.w3.org/2000/svg">
<circle cx="16.832" cy="16.8887" r="16" fill="#EAFCE4"/>
<mask id="mask0_6092_84802" style="mask-type:alpha" maskUnits="userSpaceOnUse" x="8" y="8" width="18" height="18">
<path fill-rule="evenodd" clip-rule="evenodd" d="M8 16.8889C8 11.9822 11.9822 8 16.8889 8C21.7956 8 25.7778 11.9822 25.7778 16.8889C25.7778 21.7956 21.7956 25.7778 16.8889 25.7778C11.9822 25.7778 8 21.7956 8 16.8889ZM11.2878 17.5099L14.4789 20.701C14.8255 21.0476 15.3944 21.0476 15.7322 20.701L22.4789 13.9543C22.8255 13.6076 22.8255 13.0476 22.4789 12.701C22.1322 12.3543 21.5722 12.3543 21.2255 12.701L15.11 18.8165L12.5411 16.2565C12.1944 15.9099 11.6344 15.9099 11.2878 16.2565C11.1213 16.4226 11.0278 16.6481 11.0278 16.8832C11.0278 17.1183 11.1213 17.3438 11.2878 17.5099Z" fill="black"/>
</mask>
<g mask="url(#mask0_6092_84802)">
<rect x="6.22266" y="6.22266" width="21.3333" height="21.3333" fill="#37851C"/>
</g>
</svg>
