<svg width="411" height="169" viewBox="0 0 411 169" fill="none" xmlns="http://www.w3.org/2000/svg">
<path d="M286.974 60.8054L278.355 71.5117L273 67.2056L281.62 56.5002L286.974 60.8054Z" fill="#4FAEE5"/>
<path d="M48.8549 91.7178L38.3497 103.449L32.4824 98.1947L42.9947 86.4642L48.8549 91.7178Z" fill="#E81C28"/>
<path d="M330 87.6098C359.293 83.0446 364.337 84.5764 379.554 105.5" stroke="#7CC729" stroke-width="1.17814"/>
<path d="M319 2.53285C333.341 0.297938 335.81 1.04786 343.26 11.291" stroke="#F7F00C" stroke-width="3"/>
<path d="M57.9494 44.6102C74.7476 25.5101 75.9622 21.1536 67.8271 0.500766" stroke="#E47119" stroke-width="1.88418"/>
<path d="M348 67.3405L354.421 53.5002L361.344 56.7143L354.919 70.5508L348 67.3405Z" fill="#881A8C"/>
<path d="M236.504 1.49895L246.943 3.87522L245.757 9.09375L235.316 6.71743L236.504 1.49895Z" fill="#4FAEE5"/>
<path d="M119.118 109.75L111 103.562L114.098 99.4994L122.212 105.696L119.118 109.75Z" fill="#E81C28"/>
<path d="M111 13.1007L120.806 10.5008L122.106 15.4024L112.299 18.0117L111 13.1007Z" fill="#E8038C"/>
<path d="M21 48.4897L30.5116 45.4983L32.012 50.2509L22.4966 53.2422L21 48.4897Z" fill="#7CC729"/>
<path d="M318.691 101.803L314.078 111.961L309 109.65L313.612 99.5018L318.691 101.803Z" fill="#7CC729"/>
<path d="M113.331 53.4988L114.513 58.1599L112.185 58.75L111 54.0926L113.331 53.4988Z" fill="#A074C0"/>
<path d="M259.19 35.4023L255 34.593L255.407 32.4997L259.594 33.3103L259.19 35.4023Z" fill="#E8038C"/>
<path d="M196.555 66.9805L192 64.0754L193.159 62.5001L197.714 65.4027L196.555 66.9805Z" fill="#54BF36"/>
<path d="M178.182 27.5L170 21.288L172.443 18.5L180.622 24.7153L178.182 27.5Z" fill="#435AB2"/>
</svg>
