<svg width="19" height="16" viewBox="0 0 19 16" fill="none" xmlns="http://www.w3.org/2000/svg">
<path d="M17.1601 13L11.6244 8.00004M6.86254 8.00004L1.32685 13M0.910156 3.83337L7.71426 8.59624C8.26523 8.98193 8.54072 9.17477 8.84038 9.24946C9.10507 9.31544 9.38191 9.31544 9.6466 9.24946C9.94626 9.17477 10.2217 8.98193 10.7727 8.59624L17.5768 3.83337M4.91016 14.6667H13.5768C14.977 14.6667 15.677 14.6667 16.2118 14.3942C16.6822 14.1545 17.0647 13.7721 17.3043 13.3017C17.5768 12.7669 17.5768 12.0668 17.5768 10.6667V5.33337C17.5768 3.93324 17.5768 3.23318 17.3043 2.6984C17.0647 2.22799 16.6822 1.84554 16.2118 1.60586C15.677 1.33337 14.977 1.33337 13.5768 1.33337H4.91016C3.51003 1.33337 2.80996 1.33337 2.27518 1.60586C1.80477 1.84554 1.42232 2.22799 1.18264 2.6984C0.910156 3.23318 0.910156 3.93324 0.910156 5.33337V10.6667C0.910156 12.0668 0.910156 12.7669 1.18264 13.3017C1.42232 13.7721 1.80477 14.1545 2.27518 14.3942C2.80996 14.6667 3.51003 14.6667 4.91016 14.6667Z" stroke="white" stroke-width="1.3" stroke-linecap="round" stroke-linejoin="round"/>
</svg>
