<svg width="9" height="14" viewBox="0 0 9 14" fill="none" xmlns="http://www.w3.org/2000/svg">
<path d="M6.3771 2.33333H8.22316C8.393 2.33333 8.53084 2.20267 8.53084 2.04167V0.291667C8.53084 0.130667 8.393 0 8.22316 0H6.3771C4.51135 0 2.99266 1.43908 2.99266 3.20833V5.25H0.838926C0.669089 5.25 0.53125 5.38067 0.53125 5.54167V7.29167C0.53125 7.45267 0.669089 7.58333 0.838926 7.58333H2.99266V13.7083C2.99266 13.8693 3.1305 14 3.30034 14H5.1464C5.31623 14 5.45407 13.8693 5.45407 13.7083V7.58333H7.60781C7.74011 7.58333 7.85764 7.50283 7.9001 7.38383L8.51545 5.63383C8.54684 5.54517 8.53084 5.44717 8.47299 5.37075C8.41454 5.29492 8.32223 5.25 8.22316 5.25H5.45407V3.20833C5.45407 2.72592 5.86821 2.33333 6.3771 2.33333Z" fill="white"/>
</svg>
