<svg width="18" height="18" viewBox="0 0 18 18" fill="none" xmlns="http://www.w3.org/2000/svg">
<path d="M9.90078 2.70078C9.90078 2.20373 9.49784 1.80078 9.00078 1.80078C8.50373 1.80078 8.10078 2.20373 8.10078 2.70078V3.60078C8.10078 4.09784 8.50373 4.50078 9.00078 4.50078C9.49784 4.50078 9.90078 4.09784 9.90078 3.60078V2.70078Z" fill="#F44363"/>
<path d="M14.0919 5.18236C14.4434 4.83089 14.4434 4.26104 14.0919 3.90956C13.7404 3.55809 13.1706 3.55809 12.8191 3.90956L12.1827 4.54596C11.8313 4.89743 11.8313 5.46728 12.1827 5.81875C12.5342 6.17023 13.104 6.17023 13.4555 5.81875L14.0919 5.18236Z" fill="#F44363"/>
<path d="M16.2008 9.00078C16.2008 9.49784 15.7978 9.90078 15.3008 9.90078H14.4008C13.9037 9.90078 13.5008 9.49784 13.5008 9.00078C13.5008 8.50373 13.9037 8.10078 14.4008 8.10078H15.3008C15.7978 8.10078 16.2008 8.50373 16.2008 9.00078Z" fill="#F44363"/>
<path d="M4.54595 5.81877C4.89742 6.17024 5.46727 6.17024 5.81874 5.81877C6.17022 5.4673 6.17022 4.89745 5.81874 4.54598L5.18235 3.90958C4.83088 3.55811 4.26103 3.55811 3.90955 3.90958C3.55808 4.26105 3.55808 4.8309 3.90955 5.18237L4.54595 5.81877Z" fill="#F44363"/>
<path d="M4.50078 9.00078C4.50078 9.49784 4.09784 9.90078 3.60078 9.90078H2.70078C2.20373 9.90078 1.80078 9.49784 1.80078 9.00078C1.80078 8.50373 2.20373 8.10078 2.70078 8.10078H3.60078C4.09784 8.10078 4.50078 8.50373 4.50078 9.00078Z" fill="#F44363"/>
<path d="M7.20078 14.4008V13.5008H10.8008V14.4008C10.8008 15.3949 9.99489 16.2008 9.00078 16.2008C8.00667 16.2008 7.20078 15.3949 7.20078 14.4008Z" fill="#F44363"/>
<path d="M10.8016 12.6008C10.8147 12.2945 10.9876 12.0191 11.2299 11.8278C12.0649 11.1685 12.6008 10.1472 12.6008 9.00078C12.6008 7.01256 10.989 5.40078 9.00078 5.40078C7.01256 5.40078 5.40078 7.01256 5.40078 9.00078C5.40078 10.1472 5.93668 11.1685 6.77165 11.8278C7.01395 12.0191 7.18684 12.2945 7.19998 12.6008H10.8016Z" fill="#F44363"/>
</svg>
