<svg width="16" height="16" viewBox="0 0 16 16" fill="none" xmlns="http://www.w3.org/2000/svg">
<path d="M8.89688 1.70078C8.89688 1.20373 8.49393 0.800781 7.99688 0.800781C7.49982 0.800781 7.09688 1.20373 7.09688 1.70078V2.60078C7.09688 3.09784 7.49982 3.50078 7.99688 3.50078C8.49393 3.50078 8.89688 3.09784 8.89688 2.60078V1.70078Z" fill="#F44363"/>
<path d="M13.088 4.18236C13.4395 3.83089 13.4395 3.26104 13.088 2.90956C12.7365 2.55809 12.1667 2.55809 11.8152 2.90956L11.1788 3.54596C10.8273 3.89743 10.8273 4.46728 11.1788 4.81875C11.5303 5.17023 12.1001 5.17023 12.4516 4.81875L13.088 4.18236Z" fill="#F44363"/>
<path d="M15.1969 8.00078C15.1969 8.49784 14.7939 8.90078 14.2969 8.90078H13.3969C12.8998 8.90078 12.4969 8.49784 12.4969 8.00078C12.4969 7.50372 12.8998 7.10078 13.3969 7.10078H14.2969C14.7939 7.10078 15.1969 7.50372 15.1969 8.00078Z" fill="#F44363"/>
<path d="M3.54204 4.81877C3.89352 5.17024 4.46337 5.17024 4.81484 4.81877C5.16631 4.4673 5.16631 3.89745 4.81484 3.54598L4.17844 2.90958C3.82697 2.55811 3.25712 2.55811 2.90565 2.90958C2.55418 3.26105 2.55418 3.8309 2.90565 4.18237L3.54204 4.81877Z" fill="#F44363"/>
<path d="M3.49688 8.00078C3.49688 8.49784 3.09393 8.90078 2.59688 8.90078H1.69688C1.19982 8.90078 0.796875 8.49784 0.796875 8.00078C0.796875 7.50372 1.19982 7.10078 1.69688 7.10078H2.59688C3.09393 7.10078 3.49688 7.50372 3.49688 8.00078Z" fill="#F44363"/>
<path d="M6.19688 13.4008V12.5008H9.79688V13.4008C9.79688 14.3949 8.99099 15.2008 7.99688 15.2008C7.00276 15.2008 6.19688 14.3949 6.19688 13.4008Z" fill="#F44363"/>
<path d="M9.79768 11.6008C9.81081 11.2945 9.98371 11.0191 10.226 10.8278C11.061 10.1685 11.5969 9.14723 11.5969 8.00078C11.5969 6.01256 9.9851 4.40078 7.99688 4.40078C6.00865 4.40078 4.39688 6.01256 4.39688 8.00078C4.39688 9.14723 4.93278 10.1685 5.76774 10.8278C6.01004 11.0191 6.18294 11.2945 6.19607 11.6008H9.79768Z" fill="#F44363"/>
</svg>
