<svg width="18" height="18" viewBox="0 0 18 18" fill="none" xmlns="http://www.w3.org/2000/svg">
<path d="M9.89688 2.70078C9.89688 2.20373 9.49393 1.80078 8.99688 1.80078C8.49982 1.80078 8.09688 2.20373 8.09688 2.70078V3.60078C8.09688 4.09784 8.49982 4.50078 8.99688 4.50078C9.49393 4.50078 9.89688 4.09784 9.89688 3.60078V2.70078Z" fill="#FDF1C3"/>
<path d="M14.088 5.18236C14.4395 4.83089 14.4395 4.26104 14.088 3.90956C13.7365 3.55809 13.1667 3.55809 12.8152 3.90956L12.1788 4.54596C11.8273 4.89743 11.8273 5.46728 12.1788 5.81875C12.5303 6.17023 13.1001 6.17023 13.4516 5.81875L14.088 5.18236Z" fill="#FDF1C3"/>
<path d="M16.1969 9.00078C16.1969 9.49784 15.7939 9.90078 15.2969 9.90078H14.3969C13.8998 9.90078 13.4969 9.49784 13.4969 9.00078C13.4969 8.50372 13.8998 8.10078 14.3969 8.10078H15.2969C15.7939 8.10078 16.1969 8.50372 16.1969 9.00078Z" fill="#FDF1C3"/>
<path d="M4.54204 5.81877C4.89352 6.17024 5.46337 6.17024 5.81484 5.81877C6.16631 5.4673 6.16631 4.89745 5.81484 4.54598L5.17844 3.90958C4.82697 3.55811 4.25712 3.55811 3.90565 3.90958C3.55418 4.26105 3.55418 4.8309 3.90565 5.18237L4.54204 5.81877Z" fill="#FDF1C3"/>
<path d="M4.49688 9.00078C4.49688 9.49784 4.09393 9.90078 3.59688 9.90078H2.69688C2.19982 9.90078 1.79687 9.49784 1.79688 9.00078C1.79688 8.50372 2.19982 8.10078 2.69688 8.10078H3.59688C4.09393 8.10078 4.49688 8.50372 4.49688 9.00078Z" fill="#FDF1C3"/>
<path d="M7.19688 14.4008V13.5008H10.7969V14.4008C10.7969 15.3949 9.99099 16.2008 8.99688 16.2008C8.00276 16.2008 7.19688 15.3949 7.19688 14.4008Z" fill="#FDF1C3"/>
<path d="M10.7977 12.6008C10.8108 12.2945 10.9837 12.0191 11.226 11.8278C12.061 11.1685 12.5969 10.1472 12.5969 9.00078C12.5969 7.01256 10.9851 5.40078 8.99688 5.40078C7.00865 5.40078 5.39688 7.01256 5.39688 9.00078C5.39688 10.1472 5.93278 11.1685 6.76774 11.8278C7.01004 12.0191 7.18294 12.2945 7.19607 12.6008H10.7977Z" fill="#FDF1C3"/>
</svg>
