<svg width="15" height="14" viewBox="0 0 15 14" fill="none" xmlns="http://www.w3.org/2000/svg">
<g clip-path="url(#clip0_1317_46962)">
<path d="M2.28126 3.49944C3.24777 3.49944 4.03127 2.71606 4.03127 1.74972C4.03127 0.783376 3.24777 0 2.28126 0C1.31476 0 0.53125 0.783376 0.53125 1.74972C0.53125 2.71606 1.31476 3.49944 2.28126 3.49944Z" fill="white"/>
<path d="M3.7396 4.66797H0.822919C0.661917 4.66797 0.53125 4.79861 0.53125 4.95959V13.7082C0.53125 13.8692 0.661917 13.9998 0.822919 13.9998H3.7396C3.9006 13.9998 4.03127 13.8692 4.03127 13.7082V4.95959C4.03127 4.79861 3.9006 4.66797 3.7396 4.66797Z" fill="white"/>
<path d="M12.4297 4.18338C11.1833 3.75644 9.62429 4.13147 8.68935 4.80394C8.65727 4.67855 8.54296 4.58523 8.40706 4.58523H5.49084C5.32987 4.58523 5.19922 4.71587 5.19922 4.87685V13.6254C5.19922 13.7864 5.32987 13.9171 5.49084 13.9171H8.40706C8.56804 13.9171 8.69869 13.7864 8.69869 13.6254V7.33812C9.16995 6.93218 9.7771 6.8027 10.274 7.01384C10.7558 7.21739 11.0317 7.71431 11.0317 8.37628V13.6254C11.0317 13.7864 11.1623 13.9171 11.3233 13.9171H14.2395C14.4005 13.9171 14.5311 13.7864 14.5311 13.6254V7.78896C14.4979 5.39243 13.3705 4.50532 12.4297 4.18338Z" fill="white"/>
</g>
<defs>
<clipPath id="clip0_1317_46962">
<rect width="14" height="14" fill="white" transform="translate(0.53125)"/>
</clipPath>
</defs>
</svg>
