<svg width="21" height="21" viewBox="0 0 21 21" fill="none" xmlns="http://www.w3.org/2000/svg">
<path d="M5.03125 9.08756V7.4209C5.03125 4.66257 5.86458 2.4209 10.0312 2.4209C14.1979 2.4209 15.0312 4.66257 15.0312 7.4209V9.08756" stroke="white" stroke-width="1.5" stroke-linecap="round" stroke-linejoin="round"/>
<path d="M10.0326 16.1706C11.1831 16.1706 12.1159 15.2378 12.1159 14.0872C12.1159 12.9366 11.1831 12.0039 10.0326 12.0039C8.88196 12.0039 7.94922 12.9366 7.94922 14.0872C7.94922 15.2378 8.88196 16.1706 10.0326 16.1706Z" stroke="white" stroke-width="1.5" stroke-linecap="round" stroke-linejoin="round"/>
<path d="M14.1992 19.0869H5.86589C2.53255 19.0869 1.69922 18.2536 1.69922 14.9202V13.2536C1.69922 9.92025 2.53255 9.08691 5.86589 9.08691H14.1992C17.5326 9.08691 18.3659 9.92025 18.3659 13.2536V14.9202C18.3659 18.2536 17.5326 19.0869 14.1992 19.0869Z" stroke="white" stroke-width="1.5" stroke-linecap="round" stroke-linejoin="round"/>
</svg>
