<svg width="33" height="32" viewBox="0 0 33 32" fill="none" xmlns="http://www.w3.org/2000/svg">
<path fill-rule="evenodd" clip-rule="evenodd" d="M12.5312 17.3333C13.2385 17.3333 13.9168 17.6143 14.4169 18.1144C14.917 18.6145 15.1979 19.2928 15.1979 20V25.3333C15.1979 26.0406 14.917 26.7189 14.4169 27.219C13.9168 27.719 13.2385 28 12.5312 28H7.19792C6.49067 28 5.8124 27.719 5.3123 27.219C4.8122 26.7189 4.53125 26.0406 4.53125 25.3333V20C4.53125 19.2928 4.8122 18.6145 5.3123 18.1144C5.8124 17.6143 6.49067 17.3333 7.19792 17.3333H12.5312ZM25.8646 17.3333C26.5374 17.3331 27.1853 17.5872 27.6786 18.0447C28.172 18.5021 28.4741 19.1291 28.5246 19.8L28.5312 20V25.3333C28.5315 26.0061 28.2774 26.6541 27.8199 27.1474C27.3625 27.6407 26.7355 27.9429 26.0646 27.9933L25.8646 28H20.5312C19.8585 28.0002 19.2105 27.7461 18.7172 27.2887C18.2239 26.8312 17.9217 26.2042 17.8713 25.5333L17.8646 25.3333V20C17.8644 19.3272 18.1185 18.6792 18.5759 18.1859C19.0334 17.6926 19.6604 17.3905 20.3313 17.34L20.5312 17.3333H25.8646ZM12.5312 20H7.19792V25.3333H12.5312V20ZM25.8646 20H20.5312V25.3333H25.8646V20ZM25.8646 4C26.5374 3.99979 27.1853 4.25388 27.6786 4.71133C28.172 5.16878 28.4741 5.79579 28.5246 6.46667L28.5312 6.66667V12C28.5315 12.6728 28.2774 13.3208 27.8199 13.8141C27.3625 14.3074 26.7355 14.6095 26.0646 14.66L25.8646 14.6667H20.5312C19.8585 14.6669 19.2105 14.4128 18.7172 13.9553C18.2239 13.4979 17.9217 12.8709 17.8713 12.2L17.8646 12V6.66667C17.8644 5.9939 18.1185 5.34591 18.5759 4.8526C19.0334 4.35929 19.6604 4.05712 20.3313 4.00667L20.5312 4H25.8646ZM12.5312 4C13.204 3.99979 13.852 4.25388 14.3453 4.71133C14.8386 5.16878 15.1408 5.79579 15.1912 6.46667L15.1979 6.66667V12C15.1981 12.6728 14.944 13.3208 14.4866 13.8141C14.0291 14.3074 13.4021 14.6095 12.7312 14.66L12.5312 14.6667H7.19792C6.52515 14.6669 5.87716 14.4128 5.38385 13.9553C4.89054 13.4979 4.58837 12.8709 4.53792 12.2L4.53125 12V6.66667C4.53104 5.9939 4.78513 5.34591 5.24258 4.8526C5.70003 4.35929 6.32704 4.05712 6.99792 4.00667L7.19792 4H12.5312ZM25.8646 6.66667H20.5312V12H25.8646V6.66667ZM12.5312 6.66667H7.19792V12H12.5312V6.66667Z" fill="white"/>
</svg>
