<svg width="19" height="19" viewBox="0 0 19 19" fill="none" xmlns="http://www.w3.org/2000/svg">
<path d="M7.40312 8.6525C7.32812 8.645 7.23812 8.645 7.15562 8.6525C5.37062 8.5925 3.95312 7.13 3.95312 5.33C3.95312 3.4925 5.43812 2 7.28312 2C9.12062 2 10.6131 3.4925 10.6131 5.33C10.6056 7.13 9.18812 8.5925 7.40312 8.6525Z" stroke="#434242" stroke-width="1.5" stroke-linecap="round" stroke-linejoin="round"/>
<path d="M12.8397 3.5C14.2947 3.5 15.4647 4.6775 15.4647 6.125C15.4647 7.5425 14.3397 8.6975 12.9372 8.75C12.8772 8.7425 12.8097 8.7425 12.7422 8.75" stroke="#434242" stroke-width="1.5" stroke-linecap="round" stroke-linejoin="round"/>
<path d="M3.65031 11.42C1.83531 12.635 1.83531 14.615 3.65031 15.8225C5.71281 17.2025 9.09531 17.2025 11.1578 15.8225C12.9728 14.6075 12.9728 12.6275 11.1578 11.42C9.10281 10.0475 5.72031 10.0475 3.65031 11.42Z" stroke="#434242" stroke-width="1.5" stroke-linecap="round" stroke-linejoin="round"/>
<path d="M14.2852 15.5C14.8252 15.3875 15.3352 15.17 15.7552 14.8475C16.9252 13.97 16.9252 12.5225 15.7552 11.645C15.3427 11.33 14.8402 11.12 14.3077 11" stroke="#434242" stroke-width="1.5" stroke-linecap="round" stroke-linejoin="round"/>
</svg>
