<svg width="21" height="20" viewBox="0 0 21 20" fill="none" xmlns="http://www.w3.org/2000/svg">
<path d="M10.5299 15.4173C13.5215 15.4173 15.9466 12.9922 15.9466 10.0007C15.9466 7.00911 13.5215 4.58398 10.5299 4.58398C7.53841 4.58398 5.11328 7.00911 5.11328 10.0007C5.11328 12.9922 7.53841 15.4173 10.5299 15.4173Z" stroke="#434242" stroke-width="1.5" stroke-linecap="round" stroke-linejoin="round"/>
<path d="M16.4826 15.9493L16.3742 15.841M16.3742 4.15768L16.4826 4.04935L16.3742 4.15768ZM4.58255 15.9493L4.69089 15.841L4.58255 15.9493ZM10.5326 1.73268V1.66602V1.73268ZM10.5326 18.3327V18.266V18.3327ZM2.26589 9.99935H2.19922H2.26589ZM18.8659 9.99935H18.7992H18.8659ZM4.69089 4.15768L4.58255 4.04935L4.69089 4.15768Z" stroke="#434242" stroke-width="2" stroke-linecap="round" stroke-linejoin="round"/>
</svg>
