<svg width="16" height="12" viewBox="0 0 16 12" fill="none" xmlns="http://www.w3.org/2000/svg">
<path d="M15.4461 1.46168C15.3469 1.3556 15.1872 1.32892 15.0561 1.39435C14.9745 1.435 14.8213 1.48836 14.6393 1.54108C14.8689 1.2438 15.0535 0.910943 15.135 0.611754C15.1702 0.482804 15.1187 0.346867 15.0065 0.270005C14.8943 0.193778 14.745 0.193778 14.6328 0.270005C14.4561 0.390062 13.603 0.750867 13.0637 0.867748C11.8448 -0.172109 10.4263 -0.280097 8.9518 0.558395C7.75312 1.23999 7.49225 2.62604 7.54312 3.47088C4.79946 3.21362 3.09405 1.80216 2.13406 0.633987C2.06689 0.552043 1.95863 0.508848 1.85689 0.5152C1.74994 0.522823 1.65341 0.580628 1.59863 0.670194C1.14473 1.41658 1.01886 2.24173 1.23603 3.05672C1.35472 3.50138 1.56211 3.89331 1.80276 4.21092C1.68733 4.15565 1.57581 4.08641 1.47081 4.00384C1.37429 3.92634 1.23929 3.91173 1.12516 3.96318C1.01168 4.0159 0.939293 4.1277 0.939293 4.2503C0.939293 5.64969 1.83798 6.58347 2.67731 7.07132C2.54166 7.05544 2.40014 7.02622 2.25732 6.98366C2.13471 6.94745 2.00167 6.98366 1.91689 7.07767C1.83211 7.17105 1.81189 7.30444 1.86472 7.41815C2.33623 8.43387 3.2297 9.13261 4.33512 9.38606C3.36991 9.93807 2.07797 10.2087 0.894946 10.0759C0.741687 10.055 0.595602 10.1496 0.547342 10.2932C0.499081 10.4367 0.562342 10.5943 0.69734 10.6679C2.4921 11.6494 4.11469 12 5.51684 12C7.55747 12 9.13245 11.2581 10.0911 10.6375C12.6757 8.96682 14.2865 5.9673 14.0622 3.28349C14.4763 2.98558 15.0959 2.43547 15.48 1.84408C15.5595 1.72466 15.5452 1.56713 15.4461 1.46168Z" fill="white"/>
</svg>
