<svg width="17" height="17" viewBox="0 0 17 17" fill="none" xmlns="http://www.w3.org/2000/svg">
<path fill-rule="evenodd" clip-rule="evenodd" d="M4.79826 1.95496C5.44133 1.90364 6.05182 1.65077 6.54282 1.23234C7.68863 0.255888 9.37387 0.255888 10.5197 1.23234C11.0107 1.65077 11.6212 1.90364 12.2642 1.95496C13.7649 2.07471 14.9565 3.26636 15.0763 4.76701C15.1276 5.41008 15.3805 6.02057 15.7989 6.51157C16.7754 7.65738 16.7754 9.34262 15.7989 10.4884C15.3805 10.9794 15.1276 11.5899 15.0763 12.233C14.9565 13.7336 13.7649 14.9253 12.2642 15.045C11.6212 15.0964 11.0107 15.3492 10.5197 15.7677C9.37387 16.7441 7.68863 16.7441 6.54282 15.7677C6.05182 15.3492 5.44133 15.0964 4.79826 15.045C3.29761 14.9253 2.10596 13.7336 1.98621 12.233C1.93489 11.5899 1.68202 10.9794 1.26359 10.4884C0.287138 9.34262 0.287138 7.65738 1.26359 6.51157C1.68202 6.02057 1.93489 5.41008 1.98621 4.76701C2.10596 3.26636 3.29761 2.07471 4.79826 1.95496ZM12.2384 7.20711C12.6289 6.81658 12.6289 6.18342 12.2384 5.79289C11.8478 5.40237 11.2147 5.40237 10.8241 5.79289L7.53125 9.08578L6.23836 7.79289C5.84783 7.40237 5.21467 7.40237 4.82414 7.79289C4.43362 8.18342 4.43362 8.81658 4.82414 9.20711L6.82414 11.2071C7.21467 11.5976 7.84783 11.5976 8.23836 11.2071L12.2384 7.20711Z" fill="#001224"/>
</svg>
