<svg width="21" height="20" viewBox="0 0 21 20" fill="none" xmlns="http://www.w3.org/2000/svg">
<path d="M18.8659 12.4993V7.49935C18.8659 3.33268 17.1992 1.66602 13.0326 1.66602H8.03255C3.86589 1.66602 2.19922 3.33268 2.19922 7.49935V12.4993C2.19922 16.666 3.86589 18.3327 8.03255 18.3327H13.0326C17.1992 18.3327 18.8659 16.666 18.8659 12.4993Z" stroke="#434242" stroke-width="1.5" stroke-linecap="round" stroke-linejoin="round"/>
<path d="M2.63281 5.92578H18.4328" stroke="#434242" stroke-width="1.5" stroke-linecap="round" stroke-linejoin="round"/>
<path d="M7.63281 1.75781V5.80781" stroke="#434242" stroke-width="1.5" stroke-linecap="round" stroke-linejoin="round"/>
<path d="M13.4297 1.75781V5.43281" stroke="#434242" stroke-width="1.5" stroke-linecap="round" stroke-linejoin="round"/>
<path d="M8.65625 12.0421V11.0421C8.65625 9.75875 9.56458 9.23376 10.6729 9.87542L11.5396 10.3754L12.4063 10.8754C13.5146 11.5171 13.5146 12.5671 12.4063 13.2088L11.5396 13.7088L10.6729 14.2088C9.56458 14.8504 8.65625 14.3254 8.65625 13.0421V12.0421V12.0421Z" stroke="#434242" stroke-width="1.5" stroke-miterlimit="10" stroke-linecap="round" stroke-linejoin="round"/>
</svg>
