<svg width="21" height="20" viewBox="0 0 21 20" fill="none" xmlns="http://www.w3.org/2000/svg">
<path d="M10.5312 7.08333V2.5" stroke="#434242" stroke-width="1.5" stroke-linecap="round" stroke-linejoin="round"/>
<path d="M10.5312 17.4993V12.916" stroke="#434242" stroke-width="1.5" stroke-linecap="round" stroke-linejoin="round"/>
<path d="M8.86328 2.5H12.1966" stroke="#434242" stroke-width="1.5" stroke-linecap="round" stroke-linejoin="round"/>
<path d="M8.86328 17.5H12.1966" stroke="#434242" stroke-width="1.5" stroke-linecap="round" stroke-linejoin="round"/>
<path d="M8.00573 8.54167L4.03906 6.25" stroke="#434242" stroke-width="1.5" stroke-linecap="round" stroke-linejoin="round"/>
<path d="M17.0214 13.7507L13.0547 11.459" stroke="#434242" stroke-width="1.5" stroke-linecap="round" stroke-linejoin="round"/>
<path d="M3.20703 7.69192L4.8737 4.80859" stroke="#434242" stroke-width="1.5" stroke-linecap="round" stroke-linejoin="round"/>
<path d="M16.1914 15.1919L17.8581 12.3086" stroke="#434242" stroke-width="1.5" stroke-linecap="round" stroke-linejoin="round"/>
<path d="M13.4466 10.0007C13.4466 10.534 13.3049 11.0257 13.0549 11.459C12.5466 12.334 11.6049 12.9173 10.5299 12.9173C9.45495 12.9173 8.51328 12.334 8.00495 11.459C7.75495 11.0257 7.61328 10.534 7.61328 10.0007C7.61328 9.46732 7.75495 8.97565 8.00495 8.54232C8.51328 7.66732 9.45495 7.08398 10.5299 7.08398C11.6049 7.08398 12.5466 7.66732 13.0549 8.54232C13.3049 8.97565 13.4466 9.46732 13.4466 10.0007Z" stroke="#434242" stroke-width="1.5" stroke-linecap="round" stroke-linejoin="round"/>
<path d="M17.0214 6.25L13.0547 8.54167" stroke="#434242" stroke-width="1.5" stroke-linecap="round" stroke-linejoin="round"/>
<path d="M8.00573 11.459L4.03906 13.7507" stroke="#434242" stroke-width="1.5" stroke-linecap="round" stroke-linejoin="round"/>
<path d="M17.8581 7.69192L16.1914 4.80859" stroke="#434242" stroke-width="1.5" stroke-linecap="round" stroke-linejoin="round"/>
<path d="M4.8737 15.1919L3.20703 12.3086" stroke="#434242" stroke-width="1.5" stroke-linecap="round" stroke-linejoin="round"/>
</svg>
